<svg xmlns="http://www.w3.org/2000/svg" width="712" height="293.794" viewBox="0 0 712 293.794"><defs><style>.a{fill:#f0f0f0;}</style></defs><g transform="translate(-184 -411.722)"><g transform="translate(21.383 -760.967)"><path class="a" d="M848.873,1210.181a70.672,70.672,0,0,1-2.425,18.013l-17.12,68.016h-.1l-33.587-103.418h-.053l-34.07,103.77-16.884-68.368a74.278,74.278,0,0,1-2.474-18.328q-.044-8.985,2.3-14.288h-34.4a65.2,65.2,0,0,1,7.048,14.288q3.392,8.978,8.141,26.5l26.593,100.007H768.9l26.244-80.863,27.219,80.863H839.44l26.681-100.007q4.862-17.7,8.177-26.647a65.809,65.809,0,0,1,6.918-14.144h-34.5Q848.962,1200.695,848.873,1210.181ZM966.02,1307.8v-38.723q0-15.909-6.915-24.213t-20.22-8.313a49.253,49.253,0,0,0-12.584,2.063l-14.824,17.074V1233.4a201.623,201.623,0,0,1,.951-22.281,67.993,67.993,0,0,1,3.27-14.826l-13.929,2.874-13.928,2.786a64.029,64.029,0,0,1,3.243,12.759,116.55,116.55,0,0,1,.891,15.817v77.27a135.587,135.587,0,0,1-.891,17.79,33.452,33.452,0,0,1-3.243,10.785H915.7a36.3,36.3,0,0,1-3.27-10.923,123.624,123.624,0,0,1-.951-17.652v-46.813l4.4-1.974q8.99-4.135,14.558-4.138,8.187,0,12.133,4.187,3.955,4.166,3.953,12.71V1307.8a134.151,134.151,0,0,1-.9,17.79,33.523,33.523,0,0,1-3.236,10.785h27.135a30.59,30.59,0,0,1-2.745-10.1A165.753,165.753,0,0,1,966.02,1307.8Zm34.742-58.13a36.286,36.286,0,0,1,3.283-10.966h-27.86a106.811,106.811,0,0,1,3.233,14.378,100.862,100.862,0,0,1,.9,14.2V1307.8a133.655,133.655,0,0,1-.9,17.79,33.5,33.5,0,0,1-3.233,10.785h27.86a36.212,36.212,0,0,1-3.283-10.923,125.138,125.138,0,0,1-.951-17.652V1267.28A125.42,125.42,0,0,1,1000.762,1249.672Zm-11.137-21.478a11.947,11.947,0,0,0,9.318-4.352,17.008,17.008,0,0,0,0-21.524,12.079,12.079,0,0,0-18.658,0,17.036,17.036,0,0,0,0,21.524A11.991,11.991,0,0,0,989.625,1228.194Zm97.781,67.362c-2.526,9.151-7.37,17.538-13.109,22.825a41.871,41.871,0,0,1-8.435,2.687c-5.7,1.15-13.516,1.747-23.455,1.747h-.887l15.81-35.476q9.24-20.477,22.458-48.58v-.052h-57.055c-6.367,6.839-10.575,24.036-11.665,34.351a59.565,59.565,0,0,0-.29,6.845c2.588-9.378,7.538-18.6,13.469-23.866h0a36.491,36.491,0,0,1,7.309-2.183q8.017-1.571,22.226-1.578-8.457,20.475-15.928,36.009-9.625,20.47-24.469,48.051v.042h61.367l.611-.48c6.555-6.628,10.646-23,11.749-33.5A61.058,61.058,0,0,0,1087.406,1295.556Z" transform="translate(-212.796 -7.815)"/><path class="a" d="M444.69,1238.78a38.232,38.232,0,0,0-12.937,2.422l-14.836,16.682c-.086-.416-.611-2.873-.611-2.873-4.544-20.32-10.951-29.395-30.442-44.837-3.965-3.14-13.829-6.779-18.427-9.748,15.337,17.9,25.975,39.444,29.175,58.677.3,3.2.458,6.657.458,10.405v40.523a134.422,134.422,0,0,1-.9,17.789,33.575,33.575,0,0,1-3.238,10.785h27.849a36.944,36.944,0,0,1-3.276-10.923,126.885,126.885,0,0,1-.939-17.651v-46.813l4.4-1.974q8.981-4.136,14.553-4.138a21.361,21.361,0,0,1,13.035,4.049l.892.628S448.113,1238.78,444.69,1238.78Zm32.869,13.119a36.747,36.747,0,0,1,3.282-10.967H452.992a107.765,107.765,0,0,1,3.233,14.379,101.442,101.442,0,0,1,.9,14.2v40.523a134.424,134.424,0,0,1-.9,17.789,33.652,33.652,0,0,1-3.233,10.785h27.849a36.67,36.67,0,0,1-3.282-10.923,126.927,126.927,0,0,1-.941-17.651v-40.523A127.211,127.211,0,0,1,477.559,1251.9Zm-11.142-21.478a11.97,11.97,0,0,0,9.334-4.352,17.019,17.019,0,0,0,0-21.524,12.084,12.084,0,0,0-18.663,0,17.036,17.036,0,0,0,0,21.524A11.986,11.986,0,0,0,466.417,1230.422ZM569.885,1338.6a36.921,36.921,0,0,1-3.292-10.923,128.727,128.727,0,0,1-.936-17.651v-74.4q0-14.819.813-23a58.532,58.532,0,0,1,2.957-14.11l-13.745,2.874-13.654,2.786a64.386,64.386,0,0,1,3.24,12.759,114.8,114.8,0,0,1,.895,15.817v7.637a36.476,36.476,0,0,0-11.057-1.616q-22.007,0-36.617,17.118Q483.9,1273,483.9,1298.8q0,19.313,10.561,30.64,10.539,11.325,28.613,11.315a33.068,33.068,0,0,0,11.5-2.33l11.594-13.12v13.3Zm-29.476-15.637a26.353,26.353,0,0,1-10.69,2.162,22.229,22.229,0,0,1-18.831-9.385q-6.968-9.4-6.961-25.39,0-20.039,5.754-28.882t18.779-8.856q10.871,0,17.7,5.662v61.638Z" transform="translate(-79.617 -10.042)"/><g transform="translate(654.525 1356.134)"><path class="a" d="M981.086,1477.657H967.333v-4.869h33.013v4.869H986.591v35.806h-5.505Z" transform="translate(-967.333 -1472.788)"/><path class="a" d="M1028.675,1472.788h4.977v15.077l.858-1.1a10.224,10.224,0,0,1,8.107-3.792q4.9,0,7.555,2.656t2.654,7.554v20.283h-4.979v-19.038c0-2.454-.469-4.216-1.409-5.3s-2.472-1.621-4.593-1.621a7.318,7.318,0,0,0-5.978,2.723,11.385,11.385,0,0,0-2.213,7.377v15.856h-4.977Z" transform="translate(-991.178 -1472.788)"/><path class="a" d="M1087,1520.741a9.829,9.829,0,0,1-6.889-2.326,8.075,8.075,0,0,1-2.546-6.281,8.478,8.478,0,0,1,2.393-6.338,11.784,11.784,0,0,1,6.986-2.933l6.777-.858a9.723,9.723,0,0,0,1.58-.278,2.519,2.519,0,0,0,1.493-.993,3.186,3.186,0,0,0,.527-1.881v-.249a4.391,4.391,0,0,0-1.8-3.724,8.236,8.236,0,0,0-5.008-1.339,7.331,7.331,0,0,0-4.8,1.426,6.266,6.266,0,0,0-2.09,4.246h-4.6q.358-4.869,3.432-7.322t8.8-2.446q5.4,0,8.22,2.336a8.357,8.357,0,0,1,2.823,6.824v16.27a1.6,1.6,0,0,0,.458,1.2,1.644,1.644,0,0,0,1.228.458,5.442,5.442,0,0,0,.651-.057c.285-.037.594-.091.926-.167v3.6a9.7,9.7,0,0,1-1.522.446,7,7,0,0,1-1.354.164,5,5,0,0,1-4.1-1.55,6.563,6.563,0,0,1-1.193-2.9,10.132,10.132,0,0,1-1.274,1.325A13.167,13.167,0,0,1,1087,1520.741Zm10.319-12.535v-3.213a10.649,10.649,0,0,1-3.071.914l-4.565.666a12.236,12.236,0,0,0-5.261,1.675,3.716,3.716,0,0,0-1.658,3.194,5.167,5.167,0,0,0,1.355,3.834,5.246,5.246,0,0,0,3.847,1.342,10.416,10.416,0,0,0,6.643-2.133,7.188,7.188,0,0,0,2.464-3.373,5.72,5.72,0,0,0,.165-1.136C1097.285,1509.44,1097.315,1508.848,1097.315,1508.206Z" transform="translate(-1010.18 -1479.262)"/><path class="a" d="M1131.968,1472.788h5.091v5.644h-5.091Zm.056,11.067H1137v29.608h-4.98Z" transform="translate(-1031.33 -1472.788)"/><path class="a" d="M1152.566,1472.788h4.981v40.675h-4.981Z" transform="translate(-1039.337 -1472.788)"/><path class="a" d="M1179.743,1520.741a9.847,9.847,0,0,1-6.889-2.326,8.093,8.093,0,0,1-2.545-6.281,8.48,8.48,0,0,1,2.392-6.338,11.8,11.8,0,0,1,6.986-2.933l6.781-.858a9.748,9.748,0,0,0,1.579-.278,2.522,2.522,0,0,0,1.493-.993,3.186,3.186,0,0,0,.528-1.881v-.249a4.384,4.384,0,0,0-1.8-3.724,8.221,8.221,0,0,0-5.008-1.339,7.334,7.334,0,0,0-4.8,1.426,6.275,6.275,0,0,0-2.09,4.246h-4.591q.359-4.869,3.427-7.322t8.8-2.446q5.4,0,8.22,2.336a8.366,8.366,0,0,1,2.819,6.824v16.27a1.617,1.617,0,0,0,.459,1.2,1.669,1.669,0,0,0,1.232.458,5.439,5.439,0,0,0,.646-.057c.291-.037.6-.091.931-.167v3.6a9.677,9.677,0,0,1-1.523.446,7.016,7.016,0,0,1-1.355.164,5,5,0,0,1-4.095-1.55,6.5,6.5,0,0,1-1.19-2.9,10.565,10.565,0,0,1-1.274,1.325A13.175,13.175,0,0,1,1179.743,1520.741Zm10.325-12.535v-3.213a10.645,10.645,0,0,1-3.075.914l-4.566.666a12.194,12.194,0,0,0-5.256,1.675,3.7,3.7,0,0,0-1.656,3.194,5.156,5.156,0,0,0,1.353,3.834,5.229,5.229,0,0,0,3.846,1.342,10.41,10.41,0,0,0,6.639-2.133,7.188,7.188,0,0,0,2.464-3.373,5.394,5.394,0,0,0,.166-1.136A17.029,17.029,0,0,0,1190.068,1508.206Z" transform="translate(-1046.233 -1479.262)"/><path class="a" d="M1224.538,1490.329h4.736v4.37l1.1-1.463a10.219,10.219,0,0,1,8.107-3.792q4.894,0,7.555,2.657t2.659,7.554v20.283h-4.986v-18.6q0-3.9-1.508-5.63t-4.884-1.73a6.829,6.829,0,0,0-5.7,2.723,11.787,11.787,0,0,0-2.1,7.377v15.857h-4.982Z" transform="translate(-1067.313 -1479.262)"/><path class="a" d="M1286.314,1514.266a11.426,11.426,0,0,1-9.461-4.443q-3.512-4.439-3.513-12,0-6.663,3.4-10.759a11.008,11.008,0,0,1,8.884-4.1,9.956,9.956,0,0,1,8.632,4.621l.392.555v-15.357h4.98v40.675H1295v-4.038l-.635.908A9.724,9.724,0,0,1,1286.314,1514.266Zm.28-26.815q-4.181,0-6.119,2.672t-1.934,8.481q0,5.479,2.089,8.44a6.864,6.864,0,0,0,5.964,2.959,7.146,7.146,0,0,0,5.837-2.724,11.087,11.087,0,0,0,2.215-7.211q0-6.054-2.092-9.339A6.667,6.667,0,0,0,1286.594,1487.451Z" transform="translate(-1086.283 -1472.788)"/></g><g transform="translate(162.617 1172.688)"><path class="a" d="M195.571,1258.307c-11.616-8.4-19.432-22.013-21.29-36.932a70.077,70.077,0,0,0,14.632,90.6c5.064,5.251,15.2,9.7,17.431,11.184l10.867-54.654c-8.151-2.285-15.327-4.907-21.64-10.2C195.749,1258.546,195.387,1258.071,195.571,1258.307Zm38.342-70.176a69.939,69.939,0,0,0-20.576,3.085c1.937-3.036,9.892-14.245,24.371-18.5,0,0-32.334-2.057-48.761,31.751a.069.069,0,0,1-.024.015.212.212,0,0,1-.024.074c-.094.19-.185.367-.278.559l.155-.151c-5.083,14.745,2.2,22.63,2.4,24.971l33.778.025,1.671-8.314c1.606-7.38,11.993-7.875,13.523,0l1.624,8.322,41.237.026c-.1.313,9.4,7.11,9.4,23.924,0,43.781-37.167,69.3-72.953,74.442,2.56.283,7.01,7.669,9.644,7.669,38.712,0,74.917-39.072,74.917-77.79A70.106,70.106,0,0,0,233.913,1188.131Zm45.143,63.309c-6.681,6.141-20.792,14.463-29.762,17.013l6.017,33.111C265.864,1293.978,281.693,1270.9,279.056,1251.44Z" transform="translate(-163.079 -1172.688)"/><path class="a" d="M190.529,1525.3a42.49,42.49,0,0,1-4.354-12.267c-5.515-22.426,6.157-46.836,29.505-53.2,11.68-2.126,23.352,0,29.722,11.673s2.122,26.534-12.737,27.6c6.367,7.427,15.288,9.867,24.407,2.116a28.551,28.551,0,0,0,9.56-18.037c1.057-15.923-9.56-30.782-24.417-37.146-15.92-6.372-33.96-4.249-48.816,6.364-26.534,20.167-29.718,56.254-10.616,82.788,15.916,21.227,40.329,29.718,65.8,29.718C224.176,1561.72,200.821,1548.984,190.529,1525.3Zm98.385-84.574c11.675,22.291,10.62,49.881-4.393,70.45a42.632,42.632,0,0,1-8.44,9.91c-13.7,10.917-31.743,16.222-47.659,9.852-13.8-6.364-26.536-21.226-20.167-37.146,5.305-13.8,23.348-19.1,32.9-6.368,3.182-9.548-1.116-18.355-10.613-21.226-10.156-3.069-20.166-2.124-28.658,5.308-9.554,9.548-13.8,21.223-11.675,35.022,2.122,18.046,13.794,30.78,29.717,38.211,30.777,13.795,66.867-5.307,78.542-36.087C306.961,1486.367,301.649,1460.89,288.914,1440.726ZM225.3,1436.84a42.49,42.49,0,0,1,12.8,2.361c15.783,3.644,27.464,17.446,31.707,32.3,3.184,12.734,0,26.534-10.616,35.022s-25.47,6.37-32.9-4.245c-3.184-5.306-1.06-10.61,1.064-15.916-9.551,1.057-17.209,8.75-13.8,22.285,2.405,9.546,16.983,21.224,30.777,21.224,18.047,0,32.9-12.737,39.271-28.658,10.613-27.591-4.24-60.492-31.839-71.107-33.96-12.734-74.294,4.248-89.152,38.209A65.945,65.945,0,0,1,225.3,1436.84Z" transform="translate(-162.617 -1271.11)"/></g></g></g></svg>