<svg xmlns="http://www.w3.org/2000/svg" width="150.019" height="155.141" viewBox="0 0 150.019 155.141"><defs><style>.a{fill:#c2c2c1;stroke:#c1c1c0;}.b{fill:#c1c1c0;}.c{fill:#898989;}.d{fill:#fff;}</style></defs><g transform="translate(-79.898 -26.665) rotate(-17)"><path class="a" d="M179.389,149.058A57.657,57.657,0,1,1,121.736,91.4,57.663,57.663,0,0,1,179.389,149.058Z" transform="translate(-4.069 -0.234)"/><path class="b" d="M179.726,150.456a56.593,56.593,0,1,1-113.186,0h56.219V93.878c.125-.008.253-.008.378-.008A56.589,56.589,0,0,1,179.726,150.456Z" transform="translate(-5.469 -1.632)"/><path class="c" d="M117.667,85.825a59.168,59.168,0,1,0,59.164,59.164A59.17,59.17,0,0,0,117.667,85.825Zm0,113.4a54.23,54.23,0,1,1,54.226-54.233A54.237,54.237,0,0,1,117.667,199.222Z" transform="translate(0 3.836)"/><path class="c" d="M160.214,139.471A48.069,48.069,0,1,1,112.148,91.4,48.074,48.074,0,0,1,160.214,139.471Z" transform="translate(5.519 9.354)"/><path class="d" d="M152.876,137.033a43.168,43.168,0,1,1-86.336,0h42.883V93.876c.1-.006.193-.006.288-.006A43.165,43.165,0,0,1,152.876,137.033Z" transform="translate(7.956 11.792)"/><g transform="translate(71.277 102.442)"><rect class="c" width="6.393" height="15.78" rx="0.654" transform="translate(43.326 76.994)"/><rect class="c" width="6.393" height="15.78" rx="0.654" transform="translate(59.04 74.424) rotate(-30)"/><rect class="c" width="6.393" height="15.78" rx="0.654" transform="translate(71.363 64.341) rotate(-60)"/><rect class="c" width="6.393" height="15.78" transform="translate(76.994 49.448) rotate(-90)"/><rect class="c" width="6.393" height="15.78" rx="0.654" transform="translate(74.424 33.734) rotate(-120)"/><rect class="c" width="6.393" height="15.78" rx="0.654" transform="translate(64.341 21.411) rotate(-150)"/><rect class="c" width="6.393" height="15.78" rx="0.654" transform="translate(49.448 15.78) rotate(-180)"/><rect class="c" width="6.393" height="15.78" transform="translate(33.734 18.35) rotate(150)"/><rect class="c" width="6.393" height="15.78" transform="translate(21.411 28.433) rotate(120)"/><rect class="c" width="6.393" height="15.78" transform="translate(15.78 43.326) rotate(90)"/><rect class="c" width="6.393" height="15.78" rx="0.654" transform="translate(18.35 59.04) rotate(60)"/><rect class="c" width="6.393" height="15.78" rx="0.654" transform="translate(28.433 71.363) rotate(30)"/></g><path class="c" d="M1.459,0H18.978a1.459,1.459,0,0,1,1.459,1.459V9.38a0,0,0,0,1,0,0H0a0,0,0,0,1,0,0V1.459A1.459,1.459,0,0,1,1.459,0Z" transform="translate(107.445 81.946)"/></g></svg>