<svg xmlns="http://www.w3.org/2000/svg" xmlns:xlink="http://www.w3.org/1999/xlink" width="98.978" height="126.334" viewBox="0 0 98.978 126.334"><defs><style>.a{fill:none;}.b{fill:#c1c1c0;}.c,.e,.f{fill:#fff;}.c{opacity:0.24;}.d{clip-path:url(#a);}.e{opacity:0.58;}.g{fill:#a0a0a0;}</style><clipPath id="a"><path class="a" d="M64.487,0,10.692.008C4.807.009.035,4.09.033,9.123L0,101.245Z"/></clipPath></defs><g transform="translate(0 0.005)"><g transform="translate(0.044 15.011) rotate(-11)"><g transform="translate(0 0)"><path class="b" d="M7.649.005,67.5,0c4.209,0,7.621,2.917,7.62,6.515L75.1,103.826c0,3.6-3.414,6.516-7.623,6.517l-59.852.005c-4.209,0-7.621-2.917-7.62-6.515L.025,6.522C.026,2.923,3.439.006,7.649.005Z" transform="translate(0.97 1.526)"/><path class="c" d="M64.487,0,10.692.008C4.807.009.035,4.09.033,9.123L0,101.245Z" transform="translate(1.255 2.596)"/><g transform="translate(1.255 2.596)"><g class="d" transform="translate(0 0)"><path class="e" d="M59.518,0,9.868.008C4.436.009.032,3.775.03,8.421L0,93.445Z" transform="translate(4.967 3.899)"/></g></g><path class="f" d="M66.227,113.392l-53.795.008C5.575,113.4,0,108.632,0,102.768L.033,10.645C.035,4.78,5.615.009,12.472.008L66.267,0C73.124,0,78.7,4.768,78.7,10.633l-.033,92.123C78.664,108.62,73.084,113.391,66.227,113.392ZM12.471,3.052c-4.894,0-8.876,3.407-8.878,7.592L3.56,102.767c0,4.185,3.978,7.59,8.872,7.589l53.795-.008c4.894,0,8.876-3.407,8.878-7.592l.033-92.123c0-4.185-3.978-7.59-8.872-7.589Z" transform="translate(0 0)"/></g><g transform="translate(9.54 32.356)"><path class="g" d="M32.688,18.812V14.379l-4.531-1.688-.7-1.764,2.172-4.4L26.5,3.393l-4.4,2.01-1.739-.748L18.794,0H14.37L12.678,4.537l-1.758.7-4.4-2.173L3.389,6.2,5.4,10.6l-.748,1.738L0,13.919v4.434L4.529,20.04l.7,1.756v0L3.055,26.2,6.187,29.34l4.394-2.01,1.735.744L13.9,32.729h4.428l1.688-4.537,1.753-.7,4.4,2.173L29.3,26.531l-2.011-4.4.749-1.738ZM16.341,20.724a4.358,4.358,0,1,1,4.354-4.359A4.349,4.349,0,0,1,16.341,20.724Z" transform="translate(0 16.372)"/><path class="g" d="M32.688,18.814V14.38l-4.531-1.688-.7-1.764,2.172-4.4L26.5,3.394l-4.4,2.01-1.739-.748L18.794,0H14.37L12.678,4.538l-1.758.7-4.4-2.174L3.39,6.2,5.4,10.6l-.748,1.738L0,13.92v4.434l4.529,1.688.7,1.755v0L3.055,26.2l3.133,3.136,4.394-2.01,1.735.743L13.9,32.73h4.428l1.688-4.537,1.753-.7,4.4,2.173L29.3,26.532l-2.011-4.4.749-1.738ZM16.341,20.725a4.358,4.358,0,1,1,4.354-4.359A4.35,4.35,0,0,1,16.341,20.725Z" transform="translate(26.051 0)"/><path class="g" d="M16.341,9.406V7.189l-2.265-.843-.349-.883,1.087-2.2L13.25,1.7,11.052,2.7l-.87-.373L9.395,0H7.183L6.338,2.269l-.879.352-2.2-1.087L1.694,3.1,2.7,5.3l-.374.869L0,6.96V9.176l2.264.843.351.878v0L1.527,13.1l1.566,1.569,2.2-1.005.868.371.789,2.329H9.16L10,14.094l.877-.35,2.2,1.087,1.566-1.567-1.005-2.2.374-.869Zm-8.172.955a2.178,2.178,0,1,1,2.176-2.178A2.174,2.174,0,0,1,8.169,10.361Z" transform="translate(38.569 31.695)"/></g></g></g></svg>