<svg xmlns="http://www.w3.org/2000/svg" width="104" height="103.29" viewBox="0 0 104 103.29"><defs><style>.a{fill:#fff;}</style></defs><path class="a" d="M35.808,91.409A31.557,31.557,0,0,1,32.57,82.3C28.475,65.637,37.147,47.5,54.494,42.77c8.677-1.579,17.349,0,22.081,8.673s1.577,19.714-9.462,20.5c4.73,5.519,11.358,7.332,18.134,1.571a21.214,21.214,0,0,0,7.1-13.4c.785-11.828-7.1-22.867-18.141-27.6-11.828-4.731-25.233-3.154-36.273,4.732C18.224,52.232,15.86,79.038,30.052,98.757c11.826,15.771,29.962,22.08,48.893,22.08C60.8,118.466,43.455,109.009,35.808,91.409ZM108.9,28.574c8.676,16.561,7.892,37.063-3.263,52.343a31.88,31.88,0,0,1-6.271,7.365c-10.176,8.1-23.583,12.051-35.408,7.319C53.71,90.871,44.247,79.832,48.976,68,52.921,57.752,66.325,53.8,73.422,63.271c2.364-7.1-.829-13.638-7.888-15.769-7.544-2.286-14.978-1.579-21.287,3.942-7.1,7.1-10.255,15.77-8.676,26.021,1.576,13.407,10.249,22.869,22.077,28.388,22.868,10.247,49.68-3.942,58.356-26.815C122.313,62.483,118.367,43.558,108.9,28.574ZM61.645,25.69a31.554,31.554,0,0,1,9.511,1.754c11.726,2.709,20.4,12.961,23.556,24,2.362,9.462,0,19.714-7.885,26.021a16.774,16.774,0,0,1-24.446-3.159c-2.367-3.944-.788-7.88.791-11.823-7.1.788-12.786,6.5-10.251,16.555,1.787,7.1,12.613,15.77,22.865,15.77,13.407,0,24.445-9.462,29.177-21.291,7.886-20.5-3.152-44.943-23.656-52.83-25.232-9.459-55.2,3.156-66.237,28.39A48.988,48.988,0,0,1,61.645,25.69Z" transform="translate(-15.07 -17.547)"/></svg>