<svg xmlns="http://www.w3.org/2000/svg" width="41.321" height="67.298" viewBox="0 0 41.321 67.298"><defs><style>.a{fill:#fff;}</style></defs><g transform="translate(0 0)"><path class="a" d="M1768,152.06v12.074a.891.891,0,0,1-.445.771l-7.093,4.1V185.62h.865c.988,0,1.79,4.294,1.79,5.282V214.27a1.791,1.791,0,0,1-1.79,1.79h-9.35a1.789,1.789,0,0,1-1.788-1.79V190.9c0-.988.8-5.282,1.788-5.282h.868V169l-7.095-4.1a.89.89,0,0,1-.445-.771V152.06a.894.894,0,0,1,.445-.773l4.166-2.4a.891.891,0,0,1,1.336.773v10.031a.891.891,0,0,0,.445.771l4.511,2.6a.884.884,0,0,0,.891,0l4.509-2.6a.891.891,0,0,0,.445-.771V149.655a.892.892,0,0,1,1.336-.773l4.166,2.4A.894.894,0,0,1,1768,152.06Z" transform="translate(-1745.31 -148.762)"/><path class="a" d="M1883.709,200.671v23.368a1.789,1.789,0,0,1-1.79,1.788h-9.348a1.788,1.788,0,0,1-1.79-1.788V200.671c0-.99.8-5.282,1.79-5.282h.974v-15.18l-2.785-4.821L1874,162.27h6.482l3.241,13.118-2.782,4.819v15.182h.974C1882.906,195.389,1883.709,199.681,1883.709,200.671Z" transform="translate(-1842.406 -159.217)"/></g></svg>