<svg xmlns="http://www.w3.org/2000/svg" width="134.822" height="140.425" viewBox="0 0 134.822 140.425"><defs><style>.a{fill:#8e8e8e;}.b{fill:#bab9b9;}.c,.d{fill:#fff;}.c{font-size:38px;font-family:Anuphan-Medium, Anuphan;font-weight:500;}</style></defs><g transform="translate(0 24.972) rotate(-13)"><path class="a" d="M365.191-52.86V1.117a8.674,8.674,0,0,1-8.691,8.65H301.159a8.674,8.674,0,0,1-8.691-8.65,10,10,0,0,0-1.39-5.1,10.139,10.139,0,0,0-3.806-3.7,46.048,46.048,0,0,1-10.707-8.131A46.359,46.359,0,0,1,264.52-37.463h14.3a32.788,32.788,0,0,0,7.543,12.076l.052.052a3.567,3.567,0,0,0,6.049-2.56v-9.567H318.21a8.674,8.674,0,0,0,8.691-8.65v-15.4h29.6A8.674,8.674,0,0,1,365.191-52.86Z" transform="translate(-254.178 108.723)"/><path class="a" d="M280.853-58.045a32.928,32.928,0,0,0-1.477,25.466h-14.3A46.542,46.542,0,0,1,270.859-68.2Z" transform="translate(-254.729 103.839)"/><path class="a" d="M315.032-61.51v15.4a8.674,8.674,0,0,1-8.691,8.65H280.6v-15.4a8.674,8.674,0,0,1,8.691-8.65Z" transform="translate(-242.309 108.723)"/><rect class="b" width="61.743" height="61.456" rx="5" transform="translate(43.772 52.124)"/><text class="c" transform="translate(63.54 91.118)"><tspan x="0" y="0">ก</tspan></text><path class="d" d="M359.432-41.587h-14.5a32.89,32.89,0,0,0-6.883-10.4l-.069-.069a3.947,3.947,0,0,0-6.692,2.837V-26.19a8.674,8.674,0,0,1-8.691,8.65H267.261a8.674,8.674,0,0,1-8.691-8.65V-80.15a8.662,8.662,0,0,1,8.691-8.65H322.6a8.663,8.663,0,0,1,8.691,8.65,12.4,12.4,0,0,0,1.616,6.124,11.716,11.716,0,0,0,4.484,4.481,46.966,46.966,0,0,1,10.463,8.01A46.037,46.037,0,0,1,359.432-41.587Z" transform="translate(-258.57 88.8)"/><rect class="b" width="61.743" height="61.456" rx="5" transform="translate(5.493 4.898)"/><text class="c" transform="translate(21.826 46.149)"><tspan x="0" y="0">A</tspan></text></g></svg>