<svg xmlns="http://www.w3.org/2000/svg" width="148.095" height="131.454" viewBox="0 0 148.095 131.454"><defs><style>.a{fill:#c1c1c0;}.b{fill:#f8f8f8;}</style></defs><g transform="matrix(0.995, -0.105, 0.105, 0.995, -278.219, -141.045)"><path class="a" d="M343.538,262.867c0,26.135-16.463,26.7-36.758,26.7-20.352,0-36.815-.561-36.815-26.7,0-17.847,7.734-33.41,19.141-41.463a6.455,6.455,0,0,0,1.664-8.863,19.474,19.474,0,1,1,32.04-.045,6.478,6.478,0,0,0,1.613,8.926C335.817,229.476,343.538,245.04,343.538,262.867Z" transform="translate(53.991 6.647)"/><path class="a" d="M333.488,262.867c0,26.135-16.456,26.7-36.758,26.7-20.352,0-36.809-.561-36.809-26.7,0-17.847,7.728-33.41,19.134-41.463a6.449,6.449,0,0,0,1.664-8.863,19.478,19.478,0,1,1,32.04-.045,6.478,6.478,0,0,0,1.613,8.926C325.767,229.476,333.488,245.04,333.488,262.867Z" transform="translate(0 6.647)"/><path class="b" d="M348.415,273.487c0,29.967-18.873,30.6-42.146,30.6-23.336,0-42.209-.638-42.209-30.6,0-20.461,8.863-38.314,21.946-47.546a7.393,7.393,0,0,0,1.906-10.157,22.331,22.331,0,1,1,36.739-.057A7.424,7.424,0,0,0,326.5,225.96C339.565,235.2,348.415,253.039,348.415,273.487Z" transform="translate(22.246 0)"/></g></svg>