<svg xmlns="http://www.w3.org/2000/svg" width="111.141" height="71.095" viewBox="0 0 111.141 71.095"><defs><style>.a{opacity:0.7;}.b{opacity:0.75;}.c{fill:#707070;}.d{opacity:0.3;}.e{fill:#fff;font-size:32px;font-family:Anuphan-Bold, Anuphan;font-weight:700;letter-spacing:0.09em;}</style></defs><g class="a" transform="translate(0 0)"><g class="b" transform="translate(8.133 50.762)"><circle class="c" cx="8.133" cy="8.133" r="8.133"/></g><g class="d" transform="translate(0 62.962)"><circle class="c" cx="4.067" cy="4.067" r="4.067"/></g><path class="c" d="M627.141,65.11v36.553a12.392,12.392,0,0,1-12.382,12.4H541.916a9.4,9.4,0,0,0,.354-2.583,10,10,0,0,0-17.665-6.42,12.245,12.245,0,0,1-.472-3.394V65.11a12.4,12.4,0,0,1,12.4-12.4h78.23A12.392,12.392,0,0,1,627.141,65.11Z" transform="translate(-516 -52.712)"/><text class="e" transform="translate(22.924 41.122)"><tspan x="0" y="0">SMS</tspan></text></g></svg>