<svg xmlns="http://www.w3.org/2000/svg" width="129.664" height="154.269" viewBox="0 0 129.664 154.269"><defs><style>.a{fill:#fff;}.b{fill:#c1c1c0;}.c{fill:#979797;}</style></defs><g transform="matrix(0.978, -0.208, 0.208, 0.978, -309.703, -286.847)"><g transform="translate(264.423 363.007)"><path class="a" d="M309.818,421.083a7.358,7.358,0,0,1-7.357-7.357V385.8c0-3.218-6.838-8.083-17.14-8.083-10.32,0-17.169,4.866-17.169,8.083v27.922a7.356,7.356,0,1,1-14.711,0V385.8c0-12.783,14-22.8,31.88-22.8,17.859,0,31.851,10.014,31.851,22.8v27.922A7.357,7.357,0,0,1,309.818,421.083Z" transform="translate(-253.441 -363.007)"/></g><path class="b" d="M346.049,393.642V444.09a11.014,11.014,0,0,1-11.029,11H257.559a10.992,10.992,0,0,1-11-11V393.642a11.762,11.762,0,0,1,11.755-11.755h75.982A11.762,11.762,0,0,1,346.049,393.642Z" transform="translate(0 30.114)"/><path class="c" d="M330.342,430.985v-9.15l-9.363-3.485-1.443-3.643,4.487-9.085-6.464-6.464-9.085,4.147-3.6-1.544-3.254-9.609h-9.142l-3.493,9.36-3.633,1.453-9.1-4.487-6.464,6.464,4.157,9.085-1.544,3.586L262.8,420.87v9.15l9.36,3.485,1.453,3.623v.008l-4.5,9.088,6.475,6.472,9.075-4.147,3.586,1.536,3.264,9.609h9.15l3.485-9.36,3.625-1.445,9.093,4.487,6.475-6.464-4.157-9.085,1.547-3.586Zm-33.777,3.934a8.993,8.993,0,1,1,8.994-8.992A8.986,8.986,0,0,1,296.565,434.919Z" transform="translate(-37.841 39.093)"/></g></svg>