<svg xmlns="http://www.w3.org/2000/svg" width="158.606" height="146.543" viewBox="0 0 158.606 146.543"><defs><style>.a{fill:#898989;}.b{fill:#fff;stroke-width:8.567px;}.b,.c{stroke:#fff;stroke-miterlimit:10;}.c{fill:#c1c1c0;stroke-width:2px;}.d,.f{fill:#6b6d71;}.d,.e{opacity:0.32;}.g{fill:#e5e4e4;}</style></defs><g transform="matrix(0.966, -0.259, 0.259, 0.966, -0.237, 31.08)"><path class="a" d="M119.133,40.165l-.161,45.446A13.363,13.363,0,0,1,105.767,99l-92.76.332A13.135,13.135,0,0,1-.1,86.038L.056,40.592A13.5,13.5,0,0,1,5.3,29.974l3.124-1.8L55.382,1.1a8.835,8.835,0,0,1,8.79-.014l45.875,26.427,4.7,2.706a13.153,13.153,0,0,1,4.087,7.1A12.989,12.989,0,0,1,119.133,40.165Z" transform="translate(-0.024 20.119)"/><path class="b" d="M86.886,2.627,48.03,25.01a8.789,8.789,0,0,1-8.79.014L.724,2.823A1.47,1.47,0,0,1,1.452.088L86.185-.105A1.462,1.462,0,0,1,86.886,2.627Z" transform="translate(15.772 55.699)"/><g transform="translate(26.785 -0.033)"><path class="c" d="M65.812,7.275l-.2,57L37.026,80.75a8.865,8.865,0,0,1-8.807.014L-.078,64.44l.2-56.93A7.4,7.4,0,0,1,7.431.112L58.574-.071A7.266,7.266,0,0,1,65.812,7.275Z" transform="translate(0)"/><path class="d" d="M3.7.029,20.809-.025A3.685,3.685,0,0,1,24.49,3.7a3.741,3.741,0,0,1-3.7,3.745L3.676,7.494A3.685,3.685,0,0,1,0,3.773,3.741,3.741,0,0,1,3.7.029Z" transform="translate(20.723 6.364)"/><g class="e" transform="translate(7.131 19.172)"><path class="f" d="M1.85.014l8.644-.027a1.842,1.842,0,0,1,1.841,1.861A1.871,1.871,0,0,1,10.483,3.72l-8.644.027A1.842,1.842,0,0,1,0,1.887,1.871,1.871,0,0,1,1.85.014Z" transform="translate(0 0)"/></g><g class="e" transform="translate(7.107 26.063)"><path class="f" d="M1.85.014l8.644-.027a1.842,1.842,0,0,1,1.841,1.861A1.871,1.871,0,0,1,10.483,3.72l-8.644.027A1.842,1.842,0,0,1,0,1.887,1.871,1.871,0,0,1,1.85.014Z" transform="translate(0 0)"/></g><g class="e" transform="translate(7.082 32.954)"><path class="f" d="M1.85.014l8.644-.027a1.842,1.842,0,0,1,1.841,1.861A1.871,1.871,0,0,1,10.483,3.72l-8.644.027A1.842,1.842,0,0,1,0,1.887,1.871,1.871,0,0,1,1.85.014Z" transform="translate(0 0)"/></g><g class="e" transform="translate(7.058 39.845)"><path class="f" d="M1.85.014l8.644-.027a1.842,1.842,0,0,1,1.841,1.861A1.871,1.871,0,0,1,10.483,3.72l-8.644.027A1.842,1.842,0,0,1,0,1.887,1.871,1.871,0,0,1,1.85.014Z" transform="translate(0 0)"/></g><g class="e" transform="translate(7.033 46.736)"><path class="f" d="M1.85.014l8.644-.027a1.842,1.842,0,0,1,1.841,1.861A1.871,1.871,0,0,1,10.483,3.72l-8.644.027A1.842,1.842,0,0,1,0,1.887,1.871,1.871,0,0,1,1.85.014Z" transform="translate(0 0)"/></g><g class="e" transform="translate(21.742 19.077)"><path class="f" d="M1.845.058l31.077-.1a1.838,1.838,0,0,1,1.836,1.856,1.866,1.866,0,0,1-1.847,1.867l-31.077.1A1.838,1.838,0,0,1,0,1.925,1.866,1.866,0,0,1,1.845.058Z" transform="translate(0 0)"/></g><g class="e" transform="translate(21.717 25.968)"><path class="f" d="M1.845.058l31.077-.1a1.838,1.838,0,0,1,1.836,1.856,1.866,1.866,0,0,1-1.847,1.867l-31.077.1A1.838,1.838,0,0,1,0,1.925,1.866,1.866,0,0,1,1.845.058Z" transform="translate(0 0)"/></g><g class="e" transform="translate(21.693 32.858)"><path class="f" d="M1.845.058l31.077-.1a1.838,1.838,0,0,1,1.836,1.856,1.866,1.866,0,0,1-1.847,1.867l-31.077.1A1.838,1.838,0,0,1,0,1.925,1.866,1.866,0,0,1,1.845.058Z" transform="translate(0 0)"/></g><g class="e" transform="translate(21.669 39.749)"><path class="f" d="M1.845.058l31.077-.1a1.838,1.838,0,0,1,1.836,1.856h0a1.866,1.866,0,0,1-1.847,1.867l-31.077.1A1.838,1.838,0,0,1,0,1.925,1.866,1.866,0,0,1,1.845.058Z" transform="translate(0 0)"/></g><g class="e" transform="translate(21.644 46.64)"><path class="f" d="M1.845.058l31.077-.1a1.838,1.838,0,0,1,1.836,1.856,1.866,1.866,0,0,1-1.847,1.867l-31.077.1A1.838,1.838,0,0,1,0,1.925,1.866,1.866,0,0,1,1.845.058Z" transform="translate(0 0)"/></g></g></g><path class="g" d="M319.64,425.244v-7.8l-7.879-2.97-1.214-3.1,3.776-7.742-5.44-5.509-7.646,3.534-3.027-1.316-2.739-8.189h-7.694l-2.939,7.976-3.057,1.238-7.654-3.823-5.44,5.508,3.5,7.742-1.3,3.056-8.087,2.775v7.8l7.877,2.97,1.223,3.087v.007l-3.785,7.744,5.449,5.515,7.637-3.534,3.018,1.309,2.747,8.189h7.7l2.933-7.976,3.051-1.232,7.652,3.823,5.449-5.508-3.5-7.742,1.3-3.056ZM291.215,428.6a7.664,7.664,0,1,1,7.569-7.662A7.61,7.61,0,0,1,291.215,428.6Z" transform="translate(-161.033 -313.576)"/></svg>