<svg xmlns="http://www.w3.org/2000/svg" width="104" height="104" viewBox="0 0 104 104"><defs><style>.a,.c{fill:#fff;stroke:#a0a0a0;stroke-miterlimit:10;}.a{stroke-width:11.213px;}.b{fill:#bab9b9;}.c{stroke-width:5.453px;}</style></defs><g transform="translate(-196.33 -627.182)"><circle class="a" cx="44.642" cy="44.642" r="44.642" transform="translate(203.688 634.54)"/><path class="b" d="M285.1,642.416a51.984,51.984,0,1,0,15.234,36.773A51.806,51.806,0,0,0,285.1,642.416ZM278.348,709.2a42.45,42.45,0,1,1,12.435-30.011A42.307,42.307,0,0,1,278.348,709.2Z"/><path class="b" d="M289.179,684.1a35.914,35.914,0,0,1-35.934,35.933h-.015a35.933,35.933,0,1,1,0-71.867h.015a35.769,35.769,0,0,1,18.313,5.009,13.783,13.783,0,1,0,15.9,19.919A35.7,35.7,0,0,1,289.179,684.1Z" transform="translate(-4.908 -4.912)"/><circle class="c" cx="21.709" cy="21.709" r="21.709" transform="translate(226.62 657.473)"/></g></svg>