<svg xmlns="http://www.w3.org/2000/svg" width="115.389" height="115.389" viewBox="0 0 115.389 115.389"><defs><style>.a,.b{fill:#15de97;}.b{stroke:#fff;stroke-miterlimit:10;stroke-width:2.835px;}</style></defs><g transform="translate(0 39.356) rotate(-45)"><path class="a" d="M32.225,55.291V63.13A5.143,5.143,0,0,0,34.5,67.317a6.783,6.783,0,0,1,2.9,5.568v28.1a6.544,6.544,0,0,1-6.541,6.541H24.815a6.555,6.555,0,0,1-6.552-6.552V72.884a6.783,6.783,0,0,1,2.9-5.568,5.143,5.143,0,0,0,2.271-4.186V55.291a27.829,27.829,0,1,1,8.791,0Z" transform="translate(0 0)"/><circle class="b" cx="22.216" cy="22.216" r="22.216" transform="translate(5.613 5.606)"/></g></svg>