<svg xmlns="http://www.w3.org/2000/svg" width="144" height="120.212" viewBox="0 0 144 120.212"><defs><style>.a{fill:#9b9b9b;}.b{fill:#fff;}.c{fill:#8e8e8e;}</style></defs><path class="a" d="M417.859,428.6V417.747l-11.106-4.135-1.712-4.323,5.324-10.78-7.67-7.67-10.78,4.92-4.268-1.832-3.861-11.4H372.939l-4.144,11.106-4.311,1.724-10.792-5.324-7.67,7.67,4.933,10.78-1.835,4.255-11.4,3.864v10.857l11.109,4.135,1.724,4.3v.009l-5.336,10.783,7.679,7.679,10.77-4.92,4.255,1.823,3.873,11.4H382.65l4.135-11.106,4.3-1.715,10.792,5.327,7.682-7.673-4.933-10.78,1.832-4.255Zm-40.077,4.668A10.67,10.67,0,1,1,388.454,422.6,10.663,10.663,0,0,1,377.782,433.271Z" transform="translate(-337.718 -342.455)"/><path class="b" d="M438.6,415.59V404.733L427.493,400.6l-1.712-4.323L431.1,385.5l-7.67-7.67-10.78,4.92-4.267-1.832-3.861-11.4H393.679l-4.144,11.106-4.311,1.724-10.792-5.324-7.67,7.67,4.933,10.78-1.835,4.255-11.4,3.864v10.857l11.109,4.135,1.724,4.3v.009l-5.336,10.783,7.679,7.679,10.771-4.92,4.255,1.823,3.873,11.4H403.39l4.135-11.106,4.3-1.715,10.792,5.324,7.682-7.67-4.933-10.78,1.832-4.255Zm-40.073,4.668a10.67,10.67,0,1,1,10.669-10.669A10.664,10.664,0,0,1,398.525,420.258Z" transform="translate(-294.599 -369.512)"/><path class="c" d="M408.494,417.753v-5.428l-5.551-2.066-.856-2.162,2.66-5.388-3.833-3.833-5.388,2.46-2.134-.918-1.93-5.7h-5.422l-2.072,5.552-2.155.862-5.395-2.66-3.836,3.833,2.466,5.388-.918,2.128-5.7,1.931v5.428l5.555,2.069.859,2.149v0l-2.667,5.391,3.84,3.84,5.385-2.46,2.128.911,1.937,5.7h5.425l2.069-5.551,2.149-.859,5.394,2.663,3.839-3.833-2.466-5.391.918-2.128Zm-20.035,2.334a5.334,5.334,0,1,1,5.336-5.333A5.332,5.332,0,0,1,388.459,420.087Z" transform="translate(-273.866 -317.106)"/></svg>