<svg xmlns="http://www.w3.org/2000/svg" width="136.107" height="120.838" viewBox="0 0 136.107 120.838"><defs><style>.a{fill:#a0a0a0;}.b{fill:#d6d6d6;}.c{fill:#e6e6e6;}.d{fill:#fff;}</style></defs><g transform="matrix(0.951, -0.309, 0.309, 0.951, -0.044, 35.249)"><path class="a" d="M51.227,4.8l-.152,68.974c-.008,3.709-3.545,6.035-6.366,4.187L27.573,66.735l-21.924.049C2.51,66.79-.026,63.9-.019,60.338L.073,18.467c.008-3.574,2.563-6.477,5.708-6.484l21.924-.049L44.88.643C47.709-1.218,51.235,1.092,51.227,4.8Z" transform="translate(-0.002 5.771)"/><path class="b" d="M4.811,0,5.828,0a4.737,4.737,0,0,1,4.737,4.77l-.059,23.389a4.8,4.8,0,0,1-4.761,4.794l-1.017,0a4.737,4.737,0,0,1-4.737-4.77L.05,4.795A4.8,4.8,0,0,1,4.811,0Z" transform="translate(61.961 28.548)"/><path class="c" d="M4.9,0,5.926,0a4.459,4.459,0,0,1,4.737,4.154l-.155,56.21a4.513,4.513,0,0,1-4.76,4.176l-1.029,0A4.459,4.459,0,0,1-.019,60.386L.137,4.176A4.513,4.513,0,0,1,4.9,0Z" transform="translate(82.588 12.709)"/><path class="d" d="M4.936,0,5.97,0a4.737,4.737,0,0,1,4.737,4.77l-.2,80.366a4.8,4.8,0,0,1-4.761,4.794l-1.034,0A4.737,4.737,0,0,1-.026,85.16l.2-80.366A4.8,4.8,0,0,1,4.936,0Z" transform="translate(103.241 -0.032)"/></g></svg>