<svg xmlns="http://www.w3.org/2000/svg" width="49.942" height="119.999" viewBox="0 0 49.942 119.999"><defs><style>.a{fill:#fff;}.b{fill:#32da9f;}.c{fill:#15de97;}</style></defs><g transform="translate(-1187.11 -98.183)"><path class="a" d="M1233.778,196.832a20.153,20.153,0,0,1-5.408,13.864,17.682,17.682,0,0,1-26.094,0,20.153,20.153,0,0,1-5.408-13.864A19.879,19.879,0,0,1,1205.7,180.1V121.139c0-5.647,4.308-10.225,9.622-10.225h0c5.314,0,9.621,4.577,9.621,10.225V180.1a18.589,18.589,0,0,1,3.425,2.866A20.155,20.155,0,0,1,1233.778,196.832Z" transform="translate(-3.242 -4.23)"/><g transform="translate(1187.11 98.183)"><path class="b" d="M1212.081,218.182a24.969,24.969,0,0,1-15.052-44.893V113.236a15.052,15.052,0,1,1,30.1,0v60.056a24.971,24.971,0,0,1-15.053,44.89Zm0-111.5a6.56,6.56,0,0,0-6.553,6.552v64.68l-2.032,1.243a16.462,16.462,0,1,0,17.175,0l-2.037-1.242V113.236A6.56,6.56,0,0,0,1212.081,106.684Z" transform="translate(-1187.11 -98.183)"/></g><path class="c" d="M1229.719,212.716a10.369,10.369,0,1,1-13.187-9.975V158.8a2.818,2.818,0,1,1,5.635,0V202.74A10.355,10.355,0,0,1,1229.719,212.716Z" transform="translate(-7.267 -19.206)"/></g></svg>