<svg xmlns="http://www.w3.org/2000/svg" width="111.685" height="127.416" viewBox="0 0 111.685 127.416"><defs><style>.a{fill:#8e8e8e;}.b{fill:#c1c1c0;}.c{fill:#fff;}</style></defs><g transform="matrix(0.848, -0.53, 0.53, 0.848, -277.361, 167.272)"><g transform="translate(326.689 118.992)"><path class="a" d="M319.379,63.1a40.709,40.709,0,0,0-20.64,5.561l10.709,18.528a19.67,19.67,0,0,1,19.861,0l10.71-18.528A40.692,40.692,0,0,0,319.379,63.1Z" transform="translate(-298.739 -63.098)"/></g><g transform="translate(339.276 148.643)"><path class="b" d="M317,75.735a8.185,8.185,0,1,1-12.268-7.08,8.1,8.1,0,0,1,8.172,0A8.162,8.162,0,0,1,317,75.735Z" transform="translate(-300.629 -67.55)"/></g><path class="c" d="M400.83,67.6,390.147,86.111a85.072,85.072,0,0,0-42.791-11.5c-.679,0-1.359,0-2.038.027a84.863,84.863,0,0,0-40.833,11.442L293.8,67.576a107.259,107.259,0,0,1,16.444-7.739A106.982,106.982,0,0,1,400.83,67.6Z" transform="translate(0 0)"/><path class="b" d="M368.88,67.891,358.171,86.42a50.777,50.777,0,0,0-51.043.027L296.418,67.891a72.318,72.318,0,0,1,72.462,0Z" transform="translate(14.813 27.95)"/></g></svg>