<svg xmlns="http://www.w3.org/2000/svg" width="143.003" height="65.673" viewBox="0 0 143.003 65.673"><defs><style>.a{opacity:0.996;}.b,.d,.e{fill:#15de97;}.c{fill:#fff;}.d{opacity:0.5;}.e{opacity:0.2;}</style></defs><g class="a" transform="translate(0 0)"><path class="b" d="M536.663,64.822v35.7a12.1,12.1,0,0,1-12.094,12.109h-73.56v-6.7a3.626,3.626,0,0,0-3.633-3.631h-11.2a11.972,11.972,0,0,1-.13-1.774v-35.7a12.1,12.1,0,0,1,12.094-12.11h76.429A12.1,12.1,0,0,1,536.663,64.822Z" transform="translate(-393.66 -52.712)"/><path class="c" d="M518.474,59.33,485.85,77.814a7.475,7.475,0,0,1-7.4-.014L445.982,59.234a1.215,1.215,0,0,1,.6-2.27l71.291.092A1.215,1.215,0,0,1,518.474,59.33Z" transform="translate(-389.544 -50.835)"/><rect class="d" width="33.42" height="14.381" rx="2.52" transform="translate(0 29.963)"/><rect class="b" width="42.667" height="14.381" rx="2.52" transform="translate(13.021 51.292)"/><path class="e" d="M439.82,61.113v13.06H424.785a3.636,3.636,0,0,1-3.633-3.634V64.744a3.635,3.635,0,0,1,3.633-3.631Z" transform="translate(-400.235 -49.003)"/></g></svg>