<svg xmlns="http://www.w3.org/2000/svg" width="121.224" height="136.918" viewBox="0 0 121.224 136.918"><defs><style>.a{fill:#1bbb82;opacity:0.18;}.b{fill:#bab9b9;}.b,.c{stroke:#fff;stroke-miterlimit:10;stroke-width:1.866px;}.c{fill:#c1c1c0;}.d{fill:none;}.e{fill:#fff;}.f,.h{fill:#6b6d71;}.f,.g{opacity:0.32;}</style></defs><g transform="matrix(0.966, -0.259, 0.259, 0.966, 434.922, -229.642)"><path class="a" d="M-388.284,158.189v91.4a9.81,9.81,0,0,1-9.8,9.824h-68.927a9.81,9.81,0,0,1-9.8-9.824v-91.4a9.816,9.816,0,0,1,9.8-9.824h68.927A9.816,9.816,0,0,1-388.284,158.189Z" transform="translate(-3.667 -8.671)"/><path class="b" d="M-402.921,166.695v83.7a8.993,8.993,0,0,1-9,9h-63.26a8.993,8.993,0,0,1-9-9v-83.7a9,9,0,0,1,9-9h63.26A9,9,0,0,1-402.921,166.695Z" transform="translate(0 -13.323)"/><path class="b" d="M-402.921,158.629v83.7a8.993,8.993,0,0,1-9,9h-63.26a8.993,8.993,0,0,1-9-9v-83.7a9,9,0,0,1,9-9h63.26A9,9,0,0,1-402.921,158.629Z" transform="translate(0 -9.303)"/><path class="c" d="M-402.921,148.758v83.7a8.993,8.993,0,0,1-9,9h-63.26a8.993,8.993,0,0,1-9-9v-83.7a9,9,0,0,1,9-9h63.26A9,9,0,0,1-402.921,148.758Z" transform="translate(0 -4.385)"/><path class="c" d="M-402.921,139.959v66.125l-22.934,26.566h-49.322a8.993,8.993,0,0,1-9-9v-83.7a9,9,0,0,1,9-9h63.26A9,9,0,0,1-402.921,139.959Z"/><line class="d" x1="22.934" y2="26.566" transform="translate(-425.855 206.083)"/><path class="e" d="M-345,281.606l-22.934,26.566V290.6a9,9,0,0,1,9-9Z" transform="translate(-57.923 -75.066)"/><rect class="f" width="30.302" height="9.135" rx="4.567" transform="translate(-458.698 136.981)"/><g class="g" transform="translate(-475.458 152.545)"><rect class="h" width="15.262" height="4.567" rx="2.284"/></g><g class="g" transform="translate(-475.458 160.964)"><rect class="h" width="15.262" height="4.567" rx="2.284" transform="translate(0 0)"/></g><g class="g" transform="translate(-475.458 169.383)"><rect class="h" width="15.262" height="4.567" rx="2.284"/></g><g class="g" transform="translate(-475.458 177.802)"><rect class="h" width="15.262" height="4.567" rx="2.284" transform="translate(0 0)"/></g><g class="g" transform="translate(-475.458 186.221)"><rect class="h" width="15.262" height="4.567" rx="2.284" transform="translate(0 0)"/></g><g class="g" transform="translate(-457.386 152.545)"><rect class="h" width="42.998" height="4.567" rx="2.284"/></g><g class="g" transform="translate(-457.386 160.964)"><rect class="h" width="42.998" height="4.567" rx="2.284" transform="translate(0 0)"/></g><g class="g" transform="translate(-457.386 169.383)"><rect class="h" width="42.998" height="4.567" rx="2.284"/></g><g class="g" transform="translate(-457.386 177.802)"><rect class="h" width="42.998" height="4.567" rx="2.284" transform="translate(0 0)"/></g><g class="g" transform="translate(-457.386 186.221)"><rect class="h" width="42.998" height="4.567" rx="2.284" transform="translate(0 0)"/></g></g></svg>