<svg xmlns="http://www.w3.org/2000/svg" width="39.509" height="77.054" viewBox="0 0 39.509 77.054"><defs><style>.a{fill:#dd6ed4;}</style></defs><path class="a" d="M23.52,37.91v-21.6a.992.992,0,0,1,.992-.992H29.9a.992.992,0,0,0,.992-.992V8.869a.992.992,0,0,0-.992-.992H24.512a.992.992,0,0,1-.992-.992V.992A.992.992,0,0,0,22.529,0H16.98a.992.992,0,0,0-.992.992V6.886A.992.992,0,0,1,15,7.877H9.616a.992.992,0,0,0-.992.992v5.453a.992.992,0,0,0,.992.992H15a.992.992,0,0,1,.992.992v21.6a19.754,19.754,0,1,0,7.532,0ZM19.754,70.2a12.9,12.9,0,1,1,12.9-12.9A12.9,12.9,0,0,1,19.754,70.2Z" transform="translate(39.509 77.054) rotate(180)"/></svg>