<svg xmlns="http://www.w3.org/2000/svg" width="39.508" height="80.066" viewBox="0 0 39.508 80.066"><defs><style>.a{fill:#15a8de;}</style></defs><path class="a" d="M23.52,40.922V19.705a.958.958,0,0,1,.958-.958h6.653l-.243-.421L26.6,10.89,23.52,5.564,22.047,3.012,20.584.479a.958.958,0,0,0-1.66,0L17.462,3.012,15.988,5.568,12.916,10.89,8.624,18.326l-.243.421h6.65a.958.958,0,0,1,.958.958V40.922a19.754,19.754,0,1,0,7.532,0ZM19.754,73.212a12.9,12.9,0,1,1,12.9-12.9A12.9,12.9,0,0,1,19.754,73.212Z" transform="translate(0 0)"/></svg>